<svg width="45" height="45" viewBox="0 0 45 45" fill="none" xmlns="http://www.w3.org/2000/svg">
<path d="M0 0H40C42.7614 0 45 2.23858 45 5V45H5C2.23858 45 0 42.7614 0 40V0Z" fill="#F88500"/>
<path fill-rule="evenodd" clip-rule="evenodd" d="M22.4197 20.4661L27.6868 26.0644C27.7338 26.1147 27.7925 26.1522 27.8595 26.1746C27.9265 26.197 28.0004 26.2039 28.0769 26.1949C28.1533 26.1859 28.2307 26.1612 28.3045 26.1221C28.3783 26.0831 28.447 26.0306 28.5065 25.9678C28.6288 25.8389 28.7073 25.6762 28.7255 25.5143C28.7437 25.3525 28.7001 25.204 28.604 25.1005L22.8045 18.9363C22.7575 18.8858 22.6987 18.8481 22.6316 18.8256C22.5645 18.803 22.4904 18.7961 22.4138 18.8051C22.3372 18.8141 22.2596 18.839 22.1856 18.8782C22.1776 18.8824 22.1697 18.8868 22.1618 18.8914C22.1111 18.9135 22.0663 18.9451 22.0291 18.9851L22.0019 19.0141C21.9956 19.0204 21.9894 19.0267 21.9833 19.0331C21.9762 19.0407 21.9692 19.0483 21.9624 19.0561L16.3924 24.9773C16.2988 25.0777 16.2565 25.2222 16.2744 25.38C16.2924 25.5379 16.3692 25.6968 16.4885 25.823C16.5468 25.8847 16.614 25.9363 16.6862 25.9747C16.7584 26.0131 16.8342 26.0376 16.9089 26.0466C16.9836 26.0556 17.0558 26.0491 17.1212 26.0273C17.1866 26.0055 17.2438 25.969 17.2894 25.9199L22.4197 20.4661Z" fill="white"/>
</svg>
