<svg width="55" height="38" viewBox="0 0 55 38" fill="none" xmlns="http://www.w3.org/2000/svg">
<path d="M47.45 30.304C45.721 30.564 43.96 30.519 42.247 30.167L41.655 30.037L42.538 28.484C43.9759 26.0157 45.2045 23.4314 46.211 20.758C47.2047 18.1989 47.9495 15.55 48.435 12.848C48.6826 11.5745 48.8523 10.2871 48.943 8.993C48.924 9.001 48.799 9.533 48.666 10.176C47.23 17.033 44.03 24.076 40.391 28.403C40.1892 28.6802 39.9484 28.9268 39.676 29.135C38.7922 28.1635 38.0023 27.1104 37.317 25.99C36.5713 24.7215 36.0039 23.3564 35.631 21.933C35.379 20.7766 35.3726 19.5801 35.612 18.421C35.8514 17.2619 36.3314 16.166 37.021 15.204C38.1813 13.4675 39.6094 11.9258 41.252 10.636C45.294 7.169 45.934 6.526 47.019 4.854C47.8042 3.60486 48.3416 2.21627 48.602 0.764C48.633 0.504 48.687 0.249 48.764 0C49.304 0.7 49.774 1.45 50.169 2.242C50.9069 3.63643 51.5361 5.08574 52.051 6.577C55.078 15.325 55.064 23.57 52.014 27.495C51.5023 28.1632 50.8828 28.7415 50.181 29.206C49.331 29.706 48.41 30.076 47.451 30.304H47.45ZM30.49 37.037C25.533 38.513 21 37.387 16.83 33.642C15.5832 32.5588 14.4907 31.3099 13.583 29.93C12.4741 28.1902 11.5297 26.351 10.762 24.436C10.1024 22.7264 9.25482 21.0954 8.235 19.573C6.537 17.233 4.308 15.86 0.873 15.053C0.576201 14.9936 0.284357 14.9117 0 14.808C0.394776 14.4017 0.835394 14.0426 1.313 13.738C3.20059 12.5396 5.25995 11.6363 7.42 11.059C13.4591 9.52594 19.7896 9.55967 25.812 11.157C28.8456 11.93 31.7054 13.2706 34.24 15.108L34.767 15.516L34.465 16.184C33.9355 17.2153 33.6256 18.3453 33.5549 19.5024C33.4841 20.6596 33.6541 21.8188 34.054 22.907C34.6196 24.4133 35.4305 25.8155 36.454 27.057C36.644 27.277 36.819 27.509 36.979 27.752C36.8255 27.6595 36.6838 27.5486 36.557 27.422C31.9675 23.217 26.4539 20.1495 20.461 18.467C19.494 18.211 18.143 17.907 18.087 17.93C18.068 17.937 18.739 18.263 19.577 18.652C23.3363 20.3543 26.8795 22.498 30.132 25.038C31.5221 26.1737 32.8394 27.3958 34.076 28.697C35.2101 29.9128 36.1843 31.2684 36.975 32.731L37.177 33.188L36.644 33.641C34.814 35.1348 32.7287 36.285 30.489 37.036L30.49 37.037ZM37.131 27.961C37.089 27.928 37.063 27.881 37.074 27.854C37.085 27.828 37.131 27.85 37.178 27.902C37.276 28.01 37.245 28.049 37.132 27.961H37.131Z" fill="#FF8900"/>
</svg>
