<svg width="17" height="16" viewBox="0 0 17 16" fill="none" xmlns="http://www.w3.org/2000/svg">
<path d="M8.9991 4.64882C6.72894 4.64882 4.89782 6.36588 4.89782 8.49463C4.89782 10.6234 6.72894 12.3404 8.9991 12.3404C11.2693 12.3404 13.1004 10.6234 13.1004 8.49463C13.1004 6.36588 11.2693 4.64882 8.9991 4.64882ZM8.9991 10.9949C7.53206 10.9949 6.33273 9.87363 6.33273 8.49463C6.33273 7.11563 7.52849 5.99435 8.9991 5.99435C10.4697 5.99435 11.6655 7.11563 11.6655 8.49463C11.6655 9.87363 10.4661 10.9949 8.9991 10.9949ZM14.2248 4.4915C14.2248 4.99022 13.7964 5.38853 13.2681 5.38853C12.7363 5.38853 12.3115 4.98687 12.3115 4.4915C12.3115 3.99613 12.7399 3.59448 13.2681 3.59448C13.7964 3.59448 14.2248 3.99613 14.2248 4.4915ZM16.9411 5.40191C16.8804 4.20031 16.5877 3.13593 15.649 2.25899C14.7138 1.38205 13.5787 1.10759 12.2973 1.04735C10.9766 0.977057 7.01806 0.977057 5.69737 1.04735C4.41951 1.10425 3.28443 1.37871 2.34567 2.25565C1.40691 3.13259 1.11778 4.19696 1.05353 5.39857C0.978575 6.63699 0.978575 10.3489 1.05353 11.5873C1.11421 12.7889 1.40691 13.8533 2.34567 14.7303C3.28443 15.6072 4.41594 15.8817 5.69737 15.9419C7.01806 16.0122 10.9766 16.0122 12.2973 15.9419C13.5787 15.885 14.7138 15.6105 15.649 14.7303C16.5842 13.8533 16.8768 12.7889 16.9411 11.5873C17.0161 10.3489 17.0161 6.64034 16.9411 5.40191ZM15.2349 12.9161C14.9565 13.5722 14.4175 14.0776 13.7143 14.342C12.6613 14.7336 10.1627 14.6432 8.9991 14.6432C7.83546 14.6432 5.33329 14.7303 4.28387 14.342C3.58426 14.0809 3.04528 13.5755 2.76329 12.9161C2.34567 11.9287 2.44204 9.58578 2.44204 8.49463C2.44204 7.40348 2.34924 5.05716 2.76329 4.07312C3.04171 3.41709 3.58069 2.91168 4.28387 2.64726C5.33686 2.25565 7.83546 2.34602 8.9991 2.34602C10.1627 2.34602 12.6649 2.25899 13.7143 2.64726C14.4139 2.90833 14.9529 3.41374 15.2349 4.07312C15.6525 5.06051 15.5562 7.40348 15.5562 8.49463C15.5562 9.58578 15.6525 11.9321 15.2349 12.9161Z" fill="#333333" fill-opacity="0.5"/>
</svg>
