<svg width="126" height="30" viewBox="0 0 126 30" fill="none" xmlns="http://www.w3.org/2000/svg">
<path d="M27.389 1.964H29.565L30.942 5.959L32.336 1.964H34.495L32.421 7.455L33.951 11.297L37.368 1.93H39.918L35.09 14H33.067L30.942 8.934L28.834 14H26.811L22 1.93H24.516L27.95 11.297L29.446 7.455L27.389 1.964ZM45.8406 14.085C44.9566 14.085 44.152 13.915 43.4266 13.575C42.7126 13.235 42.095 12.776 41.5736 12.198C41.0636 11.6087 40.667 10.9513 40.3836 10.226C40.1003 9.48933 39.9586 8.73567 39.9586 7.965C39.9586 7.16033 40.106 6.39533 40.4006 5.67C40.7066 4.93333 41.1203 4.28167 41.6416 3.715C42.1743 3.137 42.7976 2.68367 43.5116 2.355C44.237 2.015 45.0303 1.845 45.8916 1.845C46.7643 1.845 47.5576 2.02067 48.2716 2.372C48.997 2.72333 49.6146 3.19367 50.1246 3.783C50.6346 4.37233 51.0313 5.02967 51.3146 5.755C51.598 6.48033 51.7396 7.22833 51.7396 7.999C51.7396 8.79233 51.5923 9.55733 51.2976 10.294C51.003 11.0193 50.5893 11.671 50.0566 12.249C49.5353 12.8157 48.912 13.2633 48.1866 13.592C47.4726 13.9207 46.6906 14.085 45.8406 14.085ZM42.3386 7.965C42.3386 8.48633 42.418 8.99067 42.5766 9.478C42.7353 9.96533 42.962 10.4017 43.2566 10.787C43.5626 11.161 43.931 11.4613 44.3616 11.688C44.8036 11.9033 45.3023 12.011 45.8576 12.011C46.4243 12.011 46.9286 11.8977 47.3706 11.671C47.8126 11.433 48.181 11.1213 48.4756 10.736C48.7703 10.3393 48.9913 9.903 49.1386 9.427C49.2973 8.93967 49.3766 8.45233 49.3766 7.965C49.3766 7.44367 49.2916 6.945 49.1216 6.469C48.963 5.98167 48.7306 5.551 48.4246 5.177C48.13 4.79167 47.7616 4.49133 47.3196 4.276C46.889 4.04933 46.4016 3.936 45.8576 3.936C45.2796 3.936 44.7696 4.055 44.3276 4.293C43.897 4.51967 43.5343 4.82567 43.2396 5.211C42.945 5.59633 42.7183 6.027 42.5596 6.503C42.4123 6.979 42.3386 7.46633 42.3386 7.965ZM58.6903 14.085C57.8063 14.085 57.0016 13.915 56.2763 13.575C55.5623 13.235 54.9446 12.776 54.4233 12.198C53.9133 11.6087 53.5166 10.9513 53.2333 10.226C52.9499 9.48933 52.8083 8.73567 52.8083 7.965C52.8083 7.16033 52.9556 6.39533 53.2503 5.67C53.5563 4.93333 53.9699 4.28167 54.4913 3.715C55.0239 3.137 55.6473 2.68367 56.3613 2.355C57.0866 2.015 57.8799 1.845 58.7413 1.845C59.6139 1.845 60.4073 2.02067 61.1213 2.372C61.8466 2.72333 62.4643 3.19367 62.9743 3.783C63.4843 4.37233 63.8809 5.02967 64.1643 5.755C64.4476 6.48033 64.5893 7.22833 64.5893 7.999C64.5893 8.79233 64.4419 9.55733 64.1473 10.294C63.8526 11.0193 63.4389 11.671 62.9062 12.249C62.3849 12.8157 61.7616 13.2633 61.0363 13.592C60.3223 13.9207 59.5403 14.085 58.6903 14.085ZM55.1883 7.965C55.1883 8.48633 55.2676 8.99067 55.4263 9.478C55.5849 9.96533 55.8116 10.4017 56.1063 10.787C56.4123 11.161 56.7806 11.4613 57.2113 11.688C57.6533 11.9033 58.1519 12.011 58.7073 12.011C59.2739 12.011 59.7783 11.8977 60.2203 11.671C60.6623 11.433 61.0306 11.1213 61.3253 10.736C61.6199 10.3393 61.8409 9.903 61.9883 9.427C62.1469 8.93967 62.2263 8.45233 62.2263 7.965C62.2263 7.44367 62.1413 6.945 61.9713 6.469C61.8126 5.98167 61.5803 5.551 61.2743 5.177C60.9796 4.79167 60.6113 4.49133 60.1693 4.276C59.7386 4.04933 59.2513 3.936 58.7073 3.936C58.1293 3.936 57.6193 4.055 57.1773 4.293C56.7466 4.51967 56.3839 4.82567 56.0893 5.211C55.7946 5.59633 55.5679 6.027 55.4093 6.503C55.2619 6.979 55.1883 7.46633 55.1883 7.965ZM66.3889 14V1.93H70.7749C72.0895 1.93 73.1889 2.202 74.0729 2.746C74.9569 3.27867 75.6199 4.004 76.0619 4.922C76.5039 5.82867 76.7249 6.83733 76.7249 7.948C76.7249 9.172 76.4812 10.2373 75.9939 11.144C75.5065 12.0507 74.8152 12.7533 73.9199 13.252C73.0359 13.7507 71.9875 14 70.7749 14H66.3889ZM74.3619 7.948C74.3619 7.166 74.2202 6.48033 73.9369 5.891C73.6535 5.29033 73.2455 4.82567 72.7129 4.497C72.1802 4.157 71.5342 3.987 70.7749 3.987H68.7349V11.943H70.7749C71.5455 11.943 72.1972 11.773 72.7299 11.433C73.2625 11.0817 73.6649 10.6057 73.9369 10.005C74.2202 9.393 74.3619 8.70733 74.3619 7.948ZM87.3524 3.987H83.4934V14H81.1644V3.987H77.3054V1.93H87.3524V3.987ZM97.2318 11.943V14H88.8508V1.93H97.0788V3.987H91.1968V6.894H96.2798V8.798H91.1968V11.943H97.2318ZM98.1139 7.88C98.1139 7.14333 98.2442 6.42367 98.5049 5.721C98.7769 5.007 99.1679 4.361 99.6779 3.783C100.188 3.19367 100.811 2.729 101.548 2.389C102.285 2.03767 103.123 1.862 104.064 1.862C105.175 1.862 106.132 2.10567 106.937 2.593C107.753 3.08033 108.359 3.715 108.756 4.497L106.954 5.738C106.75 5.28467 106.484 4.92767 106.155 4.667C105.826 4.395 105.475 4.208 105.101 4.106C104.727 3.99267 104.359 3.936 103.996 3.936C103.407 3.936 102.891 4.055 102.449 4.293C102.018 4.531 101.656 4.84267 101.361 5.228C101.066 5.61333 100.845 6.044 100.698 6.52C100.562 6.996 100.494 7.472 100.494 7.948C100.494 8.48067 100.579 8.99633 100.749 9.495C100.919 9.98233 101.157 10.4187 101.463 10.804C101.78 11.178 102.154 11.4783 102.585 11.705C103.027 11.9203 103.509 12.028 104.03 12.028C104.404 12.028 104.784 11.9657 105.169 11.841C105.554 11.7163 105.911 11.518 106.24 11.246C106.569 10.974 106.824 10.6227 107.005 10.192L108.926 11.297C108.688 11.8977 108.297 12.4077 107.753 12.827C107.22 13.2463 106.62 13.5637 105.951 13.779C105.282 13.9943 104.619 14.102 103.962 14.102C103.101 14.102 102.313 13.9263 101.599 13.575C100.885 13.2123 100.267 12.7363 99.7459 12.147C99.2359 11.5463 98.8336 10.8777 98.5389 10.141C98.2556 9.393 98.1139 8.63933 98.1139 7.88ZM120.648 1.93V14H118.319V8.849H112.845V14H110.499V1.93H112.845V6.809H118.319V1.93H120.648Z" fill="#171A1A"/>
<path fill-rule="evenodd" clip-rule="evenodd" d="M11 0.967773H0V11.4839C0 13.693 1.79086 15.4839 4 15.4839H15V4.96777C15 2.75863 13.2091 0.967773 11 0.967773ZM10 2.90329H2V10.5484C2 12.2053 3.34315 13.5484 5 13.5484H13V5.90329C13 4.24643 11.6569 2.90329 10 2.90329Z" fill="#F88500"/>
<path d="M25.708 18.9317H26.416L29.956 27.4517H29.068L27.964 24.7877H24.136L23.044 27.4517H22.144L25.708 18.9317ZM27.772 24.1277L26.056 19.9157L24.316 24.1277H27.772ZM37.0094 21.9197C36.4654 21.9357 35.9854 22.0877 35.5694 22.3757C35.1614 22.6637 34.8734 23.0597 34.7054 23.5637V27.4517H33.8894V21.1997H34.6574V22.6997C34.8734 22.2597 35.1574 21.9037 35.5094 21.6317C35.8694 21.3597 36.2494 21.2077 36.6494 21.1757C36.7294 21.1677 36.7974 21.1637 36.8534 21.1637C36.9174 21.1637 36.9694 21.1677 37.0094 21.1757V21.9197ZM43.4892 27.5717C43.0332 27.5717 42.6132 27.4877 42.2292 27.3197C41.8532 27.1437 41.5212 26.9037 41.2332 26.5997C40.9532 26.2957 40.7332 25.9477 40.5732 25.5557C40.4212 25.1637 40.3452 24.7477 40.3452 24.3077C40.3452 23.7157 40.4772 23.1757 40.7412 22.6877C41.0052 22.1997 41.3732 21.8117 41.8452 21.5237C42.3172 21.2357 42.8612 21.0917 43.4772 21.0917C44.0612 21.0917 44.5772 21.2277 45.0252 21.4997C45.4732 21.7637 45.8052 22.1237 46.0212 22.5797L45.2292 22.8317C45.0532 22.5117 44.8052 22.2637 44.4852 22.0877C44.1732 21.9037 43.8252 21.8117 43.4412 21.8117C43.0252 21.8117 42.6452 21.9197 42.3012 22.1357C41.9572 22.3517 41.6812 22.6477 41.4732 23.0237C41.2732 23.3997 41.1732 23.8277 41.1732 24.3077C41.1732 24.7797 41.2772 25.2077 41.4852 25.5917C41.6932 25.9757 41.9692 26.2837 42.3132 26.5157C42.6572 26.7397 43.0372 26.8517 43.4532 26.8517C43.7252 26.8517 43.9852 26.8037 44.2332 26.7077C44.4892 26.6117 44.7092 26.4837 44.8932 26.3237C45.0852 26.1557 45.2132 25.9757 45.2772 25.7837L46.0812 26.0237C45.9692 26.3197 45.7812 26.5877 45.5172 26.8277C45.2612 27.0597 44.9572 27.2437 44.6052 27.3797C44.2612 27.5077 43.8892 27.5717 43.4892 27.5717ZM55.4991 27.4517H54.6831V23.9597C54.6831 23.2557 54.5591 22.7277 54.3111 22.3757C54.0631 22.0157 53.7071 21.8357 53.2431 21.8357C52.9391 21.8357 52.6351 21.9157 52.3311 22.0757C52.0351 22.2277 51.7711 22.4397 51.5391 22.7117C51.3151 22.9757 51.1551 23.2797 51.0591 23.6237V27.4517H50.2431V18.6917H51.0591V22.6157C51.3071 22.1517 51.6511 21.7837 52.0911 21.5117C52.5391 21.2317 53.0151 21.0917 53.5191 21.0917C53.8791 21.0917 54.1831 21.1557 54.4311 21.2837C54.6871 21.4117 54.8911 21.5997 55.0431 21.8477C55.2031 22.0877 55.3191 22.3717 55.3911 22.6997C55.4631 23.0197 55.4991 23.3837 55.4991 23.7917V27.4517ZM60.1192 27.4517V21.1997H60.9352V27.4517H60.1192ZM60.1192 19.8917V18.6917H60.9352V19.8917H60.1192ZM68.6125 27.1517C68.5485 27.1757 68.4485 27.2197 68.3125 27.2837C68.1765 27.3477 68.0125 27.4037 67.8205 27.4517C67.6285 27.4997 67.4205 27.5237 67.1965 27.5237C66.9645 27.5237 66.7445 27.4797 66.5365 27.3917C66.3365 27.3037 66.1765 27.1717 66.0565 26.9957C65.9365 26.8117 65.8765 26.5877 65.8765 26.3237V21.8477H65.0125V21.1997H65.8765V19.0877H66.6925V21.1997H68.1325V21.8477H66.6925V26.0957C66.7085 26.3197 66.7885 26.4877 66.9325 26.5997C67.0845 26.7117 67.2565 26.7677 67.4485 26.7677C67.6725 26.7677 67.8765 26.7317 68.0605 26.6597C68.2445 26.5797 68.3565 26.5237 68.3965 26.4917L68.6125 27.1517ZM75.1066 27.5717C74.6586 27.5717 74.2426 27.4877 73.8586 27.3197C73.4746 27.1437 73.1426 26.9077 72.8626 26.6117C72.5826 26.3077 72.3626 25.9597 72.2026 25.5677C72.0506 25.1757 71.9746 24.7557 71.9746 24.3077C71.9746 23.7237 72.1066 23.1877 72.3706 22.6997C72.6426 22.2117 73.0146 21.8237 73.4866 21.5357C73.9586 21.2397 74.4946 21.0917 75.0946 21.0917C75.7106 21.0917 76.2466 21.2397 76.7026 21.5357C77.1666 21.8317 77.5306 22.2237 77.7946 22.7117C78.0586 23.1917 78.1906 23.7197 78.1906 24.2957C78.1906 24.3597 78.1906 24.4237 78.1906 24.4877C78.1906 24.5437 78.1866 24.5877 78.1786 24.6197H72.8266C72.8666 25.0677 72.9906 25.4677 73.1986 25.8197C73.4146 26.1637 73.6906 26.4397 74.0266 26.6477C74.3706 26.8477 74.7426 26.9477 75.1426 26.9477C75.5506 26.9477 75.9346 26.8437 76.2946 26.6357C76.6626 26.4277 76.9186 26.1557 77.0626 25.8197L77.7706 26.0117C77.6426 26.3077 77.4466 26.5757 77.1826 26.8157C76.9186 27.0557 76.6066 27.2437 76.2466 27.3797C75.8946 27.5077 75.5146 27.5717 75.1066 27.5717ZM72.8026 24.0317H77.4226C77.3906 23.5757 77.2666 23.1757 77.0506 22.8317C76.8426 22.4877 76.5666 22.2197 76.2226 22.0277C75.8866 21.8277 75.5146 21.7277 75.1066 21.7277C74.6986 21.7277 74.3266 21.8277 73.9906 22.0277C73.6546 22.2197 73.3786 22.4917 73.1626 22.8437C72.9546 23.1877 72.8346 23.5837 72.8026 24.0317ZM85.0415 27.5717C84.5855 27.5717 84.1655 27.4877 83.7815 27.3197C83.4055 27.1437 83.0735 26.9037 82.7855 26.5997C82.5055 26.2957 82.2855 25.9477 82.1255 25.5557C81.9735 25.1637 81.8975 24.7477 81.8975 24.3077C81.8975 23.7157 82.0295 23.1757 82.2935 22.6877C82.5575 22.1997 82.9255 21.8117 83.3975 21.5237C83.8695 21.2357 84.4135 21.0917 85.0295 21.0917C85.6135 21.0917 86.1295 21.2277 86.5775 21.4997C87.0255 21.7637 87.3575 22.1237 87.5735 22.5797L86.7815 22.8317C86.6055 22.5117 86.3575 22.2637 86.0375 22.0877C85.7255 21.9037 85.3775 21.8117 84.9935 21.8117C84.5775 21.8117 84.1975 21.9197 83.8535 22.1357C83.5095 22.3517 83.2335 22.6477 83.0255 23.0237C82.8255 23.3997 82.7255 23.8277 82.7255 24.3077C82.7255 24.7797 82.8295 25.2077 83.0375 25.5917C83.2455 25.9757 83.5215 26.2837 83.8655 26.5157C84.2095 26.7397 84.5895 26.8517 85.0055 26.8517C85.2775 26.8517 85.5375 26.8037 85.7855 26.7077C86.0415 26.6117 86.2615 26.4837 86.4455 26.3237C86.6375 26.1557 86.7655 25.9757 86.8295 25.7837L87.6335 26.0237C87.5215 26.3197 87.3335 26.5877 87.0695 26.8277C86.8135 27.0597 86.5095 27.2437 86.1575 27.3797C85.8135 27.5077 85.4415 27.5717 85.0415 27.5717ZM94.7955 27.1517C94.7315 27.1757 94.6315 27.2197 94.4955 27.2837C94.3595 27.3477 94.1955 27.4037 94.0035 27.4517C93.8115 27.4997 93.6035 27.5237 93.3795 27.5237C93.1475 27.5237 92.9275 27.4797 92.7195 27.3917C92.5195 27.3037 92.3595 27.1717 92.2395 26.9957C92.1195 26.8117 92.0595 26.5877 92.0595 26.3237V21.8477H91.1955V21.1997H92.0595V19.0877H92.8755V21.1997H94.3155V21.8477H92.8755V26.0957C92.8915 26.3197 92.9715 26.4877 93.1155 26.5997C93.2675 26.7117 93.4395 26.7677 93.6315 26.7677C93.8555 26.7677 94.0595 26.7317 94.2435 26.6597C94.4275 26.5797 94.5395 26.5237 94.5795 26.4917L94.7955 27.1517ZM98.635 24.8717V21.1997H99.451V24.7277C99.451 25.4397 99.571 25.9717 99.811 26.3237C100.059 26.6757 100.423 26.8517 100.903 26.8517C101.223 26.8517 101.531 26.7837 101.827 26.6477C102.131 26.5037 102.399 26.3037 102.631 26.0477C102.863 25.7837 103.039 25.4797 103.159 25.1357V21.1997H103.975V26.4677C103.975 26.5797 103.999 26.6637 104.047 26.7197C104.095 26.7677 104.167 26.7957 104.263 26.8037V27.4517C104.167 27.4597 104.091 27.4637 104.035 27.4637C103.979 27.4717 103.927 27.4757 103.879 27.4757C103.719 27.4597 103.579 27.3957 103.459 27.2837C103.347 27.1717 103.287 27.0357 103.279 26.8757L103.255 26.0357C102.983 26.5157 102.611 26.8917 102.139 27.1637C101.675 27.4357 101.171 27.5717 100.627 27.5717C99.971 27.5717 99.475 27.3437 99.139 26.8877C98.803 26.4317 98.635 25.7597 98.635 24.8717ZM111.82 21.9197C111.276 21.9357 110.796 22.0877 110.38 22.3757C109.972 22.6637 109.684 23.0597 109.516 23.5637V27.4517H108.7V21.1997H109.468V22.6997C109.684 22.2597 109.968 21.9037 110.32 21.6317C110.68 21.3597 111.06 21.2077 111.46 21.1757C111.54 21.1677 111.608 21.1637 111.664 21.1637C111.728 21.1637 111.78 21.1677 111.82 21.1757V21.9197ZM118.288 27.5717C117.84 27.5717 117.424 27.4877 117.04 27.3197C116.656 27.1437 116.324 26.9077 116.044 26.6117C115.764 26.3077 115.544 25.9597 115.384 25.5677C115.232 25.1757 115.156 24.7557 115.156 24.3077C115.156 23.7237 115.288 23.1877 115.552 22.6997C115.824 22.2117 116.196 21.8237 116.668 21.5357C117.14 21.2397 117.676 21.0917 118.276 21.0917C118.892 21.0917 119.428 21.2397 119.884 21.5357C120.348 21.8317 120.712 22.2237 120.976 22.7117C121.24 23.1917 121.372 23.7197 121.372 24.2957C121.372 24.3597 121.372 24.4237 121.372 24.4877C121.372 24.5437 121.368 24.5877 121.36 24.6197H116.008C116.048 25.0677 116.172 25.4677 116.38 25.8197C116.596 26.1637 116.872 26.4397 117.208 26.6477C117.552 26.8477 117.924 26.9477 118.324 26.9477C118.732 26.9477 119.116 26.8437 119.476 26.6357C119.844 26.4277 120.1 26.1557 120.244 25.8197L120.952 26.0117C120.824 26.3077 120.628 26.5757 120.364 26.8157C120.1 27.0557 119.788 27.2437 119.428 27.3797C119.076 27.5077 118.696 27.5717 118.288 27.5717ZM115.984 24.0317H120.604C120.572 23.5757 120.448 23.1757 120.232 22.8317C120.024 22.4877 119.748 22.2197 119.404 22.0277C119.068 21.8277 118.696 21.7277 118.288 21.7277C117.88 21.7277 117.508 21.8277 117.172 22.0277C116.836 22.2197 116.56 22.4917 116.344 22.8437C116.136 23.1877 116.016 23.5837 115.984 24.0317Z" fill="#171A1A" fill-opacity="0.45"/>
</svg>
