<svg width="40" height="40" viewBox="0 0 40 40" fill="none" xmlns="http://www.w3.org/2000/svg">
<g clip-path="url(#clip0_103_113)">
<mask id="mask0_103_113" style="mask-type:alpha" maskUnits="userSpaceOnUse" x="0" y="0" width="40" height="40">
<path d="M0 0H40V40H0V0Z" fill="white"/>
</mask>
<g mask="url(#mask0_103_113)">
<path d="M19.053 39.553C17.489 38.596 0.58999 27.446 0.30599 27.183C-0.0540098 26.853 -0.10101 26.087 0.20899 25.643C0.45599 25.29 1.20899 25.12 1.59799 25.329C1.75199 25.411 5.92799 28.141 10.876 31.394C15.826 34.648 19.931 37.31 20 37.31C20.069 37.31 24.174 34.648 29.124 31.394C34.073 28.141 38.248 25.412 38.402 25.329C38.792 25.12 39.544 25.29 39.791 25.642C40.101 26.087 40.053 26.852 39.694 27.184C39.409 27.446 22.516 38.593 20.947 39.553C20.546 39.799 20.119 40 20 40C19.88 40 19.454 39.799 19.053 39.553ZM19.299 33.199C18.569 32.802 18.433 31.923 19.012 31.342C19.782 30.571 21.342 31.072 21.342 32.091C21.342 32.627 21.14 32.964 20.674 33.206C20.186 33.458 19.772 33.456 19.299 33.199ZM15.892 30.932C14.94 30.51 14.621 29.632 15.166 28.937C15.516 28.492 15.981 28.417 16.623 28.706C17.573 29.132 17.864 29.986 17.283 30.639C16.9 31.069 16.424 31.169 15.892 30.932ZM23.134 30.989C22.472 30.721 22.221 29.847 22.634 29.254C22.916 28.852 23.804 28.452 24.234 28.534C24.685 28.621 25.1 29.18 25.1 29.702C25.1 30.205 24.716 30.668 24.078 30.935C23.573 31.147 23.531 31.149 23.134 30.989ZM12.015 28.409C11.406 28.072 11.143 27.715 11.143 27.228C11.143 25.9 12.641 25.612 13.547 26.766C13.92 27.241 13.9 27.651 13.479 28.152C13.106 28.597 12.535 28.697 12.015 28.409ZM26.521 28.152C26.101 27.652 26.081 27.242 26.453 26.766C27.079 25.969 28.203 25.807 28.652 26.449C28.963 26.894 28.915 27.659 28.555 27.988C27.77 28.704 27.034 28.764 26.521 28.152ZM19.412 26.932C18.35 26.311 0.30199 14.377 0.17199 14.205C-0.10801 13.841 -0.0350098 13.045 0.30599 12.729C0.47199 12.574 4.86599 9.647 10.069 6.224C18 1.008 19.606 0 20 0C20.394 0 21.999 1.006 29.93 6.224C35.134 9.648 39.528 12.574 39.694 12.729C40.035 13.046 40.107 13.842 39.828 14.206C39.685 14.393 21.293 26.546 20.55 26.945C20.373 27.0337 20.1773 27.0787 19.9793 27.0763C19.7813 27.0738 19.5868 27.024 19.412 26.931V26.932ZM8.25799 25.944C7.65699 25.63 7.38499 25.234 7.38499 24.674C7.38499 23.696 8.39099 23.276 9.33299 23.859C10.737 24.729 9.71699 26.707 8.25799 25.944ZM30.635 26.006C30.469 25.939 30.233 25.676 30.112 25.419C29.924 25.025 29.917 24.89 30.061 24.542C30.426 23.658 31.751 23.289 32.331 23.91C32.921 24.54 32.651 25.502 31.766 25.923C31.246 26.171 31.074 26.183 30.636 26.006H30.635ZM4.20499 23.31C3.94025 23.1288 3.73774 22.8704 3.62499 22.57C3.49499 22.178 3.50999 22.04 3.72299 21.675C4.06499 21.088 4.64099 20.929 5.29799 21.242C6.22199 21.682 6.50499 22.618 5.90799 23.255C5.51399 23.675 4.80899 23.698 4.20599 23.31H4.20499ZM34.092 23.255C33.495 22.618 33.779 21.681 34.702 21.242C35.359 20.929 35.935 21.088 36.277 21.675C36.491 22.041 36.505 22.177 36.375 22.574C36.065 23.514 34.713 23.917 34.092 23.255ZM0.64499 20.964C0.18699 20.707 0.0049902 20.372 0.0049902 19.788C0.0049902 18.803 1.17899 18.396 2.00699 19.095C2.78299 19.75 2.46299 20.971 1.47999 21.106C1.1938 21.1446 0.902625 21.0955 0.64499 20.965V20.964ZM38.159 21.033C37.779 20.879 37.58 20.493 37.58 19.911C37.58 19.554 37.678 19.361 37.993 19.095C38.83 18.389 39.996 18.803 39.996 19.807C39.996 20.385 39.804 20.717 39.327 20.965C38.891 21.191 38.594 21.208 38.159 21.032V21.033Z" fill="#F88500"/>
</g>
</g>
<defs>
<clipPath id="clip0_103_113">
<rect width="40" height="40" fill="white"/>
</clipPath>
</defs>
</svg>
