<svg width="52" height="33" viewBox="0 0 52 33" fill="none" xmlns="http://www.w3.org/2000/svg">
<g clip-path="url(#clip0_103_120)">
<path d="M11.121 32.6759C11.143 32.4979 11.201 32.2009 11.248 32.0159C11.295 31.8309 11.334 31.5899 11.334 31.4799C11.334 31.3699 11.362 31.2639 11.396 31.2429C11.43 31.2219 11.458 31.0729 11.458 30.9099C11.458 30.7479 11.479 30.5949 11.505 30.5699C11.547 30.5299 11.655 29.9809 11.749 29.3319C11.769 29.1959 11.804 29.0719 11.829 29.0539C11.853 29.0369 11.906 28.8009 11.947 28.5299L12.055 27.8209C12.0727 27.7054 12.1015 27.5919 12.141 27.4819C12.191 27.3659 12.308 26.7549 12.371 26.2799C12.387 26.1609 12.424 26.0089 12.453 25.9399C12.483 25.8729 12.523 25.7199 12.545 25.6019C12.676 24.8519 12.741 24.5579 12.782 24.5179C12.807 24.4919 12.828 24.4139 12.828 24.3429C12.827 24.1589 13.038 23.3549 13.093 23.3309C13.119 23.3199 13.14 23.2429 13.14 23.1609C13.14 23.0789 13.165 23.0119 13.195 23.0119C13.225 23.0119 13.268 22.9429 13.29 22.8579C13.311 22.7729 13.356 22.7039 13.39 22.7039C13.4065 22.7034 13.4222 22.6964 13.4336 22.6844C13.445 22.6724 13.4512 22.6564 13.451 22.6399C13.451 22.5809 13.805 22.1669 13.997 22.0009C14.04 21.9639 14.184 21.8289 14.317 21.7019C14.449 21.5749 14.576 21.4719 14.598 21.4719C14.621 21.4719 14.715 21.4019 14.808 21.3169C14.9 21.2319 15.008 21.1629 15.048 21.1629C15.089 21.1629 15.131 21.1389 15.143 21.1099C15.166 21.0499 16.033 20.5169 16.409 20.3299C16.546 20.2629 16.672 20.1939 16.689 20.1769C16.724 20.1419 17.131 19.9469 17.966 19.5619C18.274 19.4209 18.576 19.2789 18.635 19.2469C18.6978 19.2145 18.7665 19.1951 18.837 19.1899C18.889 19.1899 18.931 19.1619 18.931 19.1279C18.931 19.0939 18.967 19.0669 19.011 19.0669C19.097 19.0669 19.602 18.8149 20.052 18.5479C20.206 18.4569 20.41 18.3499 20.504 18.3099C20.598 18.2699 20.675 18.2169 20.675 18.1899C20.675 18.1639 20.718 18.1419 20.77 18.1419C20.822 18.1419 20.975 18.0719 21.111 17.9879C21.247 17.9029 21.399 17.8339 21.449 17.8339C21.566 17.8339 21.671 17.4679 21.671 17.0559V16.7409L22.232 16.6589L22.792 16.5769V16.2219C22.792 15.7359 22.68 15.2439 22.569 15.2439C22.521 15.2439 22.481 15.2169 22.481 15.1829C22.481 15.1747 22.4793 15.1665 22.4762 15.1589C22.473 15.1513 22.4683 15.1445 22.4625 15.1387C22.4566 15.1329 22.4496 15.1284 22.442 15.1253C22.4344 15.1223 22.4262 15.1208 22.418 15.1209C22.321 15.1209 21.983 14.8019 21.983 14.7109C21.983 14.6649 21.962 14.6279 21.936 14.6279C21.856 14.6279 21.547 13.8659 21.547 13.6679C21.547 13.5899 21.519 13.5079 21.485 13.4879C21.451 13.4669 21.423 13.2869 21.423 13.0879C21.423 12.6539 21.383 12.5319 21.239 12.5319C21.06 12.5319 20.749 12.3499 20.623 12.1739C20.48 11.9699 20.433 11.7839 20.363 11.1279C20.332 10.8479 20.287 10.5849 20.261 10.5439C20.214 10.4689 20.133 10.0959 20.073 9.67488C20.053 9.53788 20.067 9.40988 20.108 9.36988C20.1498 9.32393 20.1746 9.26495 20.178 9.20288C20.178 9.14888 20.289 8.99588 20.426 8.86288C20.706 8.59288 20.709 8.58588 20.588 8.31788C20.5172 8.15296 20.4525 7.98552 20.394 7.81588C20.3451 7.67053 20.2924 7.52648 20.236 7.38388C20.068 6.99288 20.044 6.71688 20.076 5.56488C20.113 4.26488 20.162 3.65888 20.238 3.56188C20.264 3.52788 20.305 3.36888 20.328 3.20888C20.352 3.04888 20.398 2.90088 20.43 2.88088C20.462 2.86088 20.488 2.77788 20.488 2.69488C20.488 2.61188 20.513 2.54488 20.544 2.54488C20.574 2.54488 20.617 2.47488 20.639 2.39088C20.659 2.30588 20.81 2.10288 20.972 1.94088C21.1052 1.80026 21.2657 1.68827 21.4436 1.61176C21.6216 1.53524 21.8133 1.49582 22.007 1.49588C22.136 1.49588 22.153 1.46788 22.153 1.24688C22.1479 1.17348 22.1582 1.09983 22.1832 1.03062C22.2081 0.96141 22.2472 0.898155 22.298 0.844882C22.478 0.654882 22.955 0.386882 23.112 0.386882C23.176 0.386882 23.229 0.365882 23.229 0.339882C23.229 0.297882 23.746 0.166882 24.412 0.0398825C24.747 -0.0251175 26.452 -0.00711753 26.872 0.0648825C27.353 0.147882 27.835 0.256882 27.992 0.319882C28.062 0.346882 28.223 0.414882 28.352 0.469882C28.482 0.525882 28.63 0.571882 28.68 0.571882C28.73 0.571882 28.771 0.595882 28.771 0.625882C28.771 0.655882 28.821 0.695882 28.881 0.715882C29.081 0.782882 29.648 1.19388 29.964 1.49988C30.257 1.78388 30.627 2.44088 30.742 2.88388C30.76 2.95088 30.797 3.06188 30.826 3.12988C30.96 3.45188 31.044 4.64588 31.044 6.21288C31.044 7.12788 31.03 8.01488 31.014 8.18288C30.984 8.47688 30.988 8.48988 31.169 8.55188C31.439 8.64288 31.626 8.88188 31.673 9.19188C31.718 9.48888 31.663 10.1749 31.577 10.3909C31.547 10.4659 31.474 10.6949 31.416 10.8979C31.356 11.1019 31.284 11.2939 31.254 11.3269C31.224 11.3589 31.2 11.4469 31.2 11.5219C31.2 11.5969 31.179 11.6679 31.153 11.6789C31.128 11.6899 31.051 11.8109 30.982 11.9459C30.849 12.2089 30.659 12.4029 30.531 12.4059C30.488 12.4079 30.453 12.4389 30.453 12.4759C30.453 12.5179 30.393 12.5309 30.305 12.5089C30.166 12.4739 30.156 12.4919 30.121 12.8259C30.048 13.5099 29.945 14.1049 29.888 14.1619C29.856 14.1949 29.83 14.2849 29.83 14.3619C29.83 14.4409 29.802 14.5049 29.768 14.5049C29.733 14.5049 29.705 14.5389 29.705 14.5819C29.705 14.6869 29.336 15.0719 29.139 15.1719C28.989 15.2489 28.982 15.2719 29.027 15.5419C29.054 15.7009 29.077 15.9989 29.079 16.2059L29.083 16.5809L29.534 16.6589C29.782 16.7019 30.021 16.7469 30.064 16.7589C30.116 16.7749 30.141 16.9209 30.141 17.2119C30.141 17.7419 30.215 17.9119 30.507 18.0589C30.631 18.1219 30.747 18.1869 30.764 18.2049C30.851 18.2949 31.145 18.4499 31.229 18.4499C31.282 18.4499 31.325 18.4779 31.325 18.5119C31.325 18.5459 31.352 18.5739 31.385 18.5739C31.437 18.5739 31.967 18.7939 32.259 18.9379C32.36 18.9879 33.505 19.3409 33.909 19.4479C34.046 19.4829 34.214 19.5339 34.283 19.5609C34.351 19.5869 34.547 19.6559 34.719 19.7129C35.162 19.8629 36.344 20.3959 36.431 20.4859C36.448 20.5039 36.541 20.5679 36.638 20.6289C36.948 20.8239 37.48 21.3089 37.77 21.6589C37.93 21.8519 38.113 22.3689 38.113 22.6239C38.113 22.7319 38.138 22.8359 38.168 22.8539C38.199 22.8729 38.238 22.9929 38.255 23.1199C38.295 23.4139 38.409 23.8699 38.483 24.0299C38.515 24.0969 38.554 24.2359 38.571 24.3379C38.633 24.7109 38.742 25.1419 38.801 25.2459C38.833 25.3059 38.86 25.4219 38.86 25.5059C38.8634 25.606 38.883 25.705 38.918 25.7989C38.95 25.8769 39.022 26.1629 39.078 26.4339C39.135 26.7049 39.208 26.9749 39.238 27.0339C39.2712 27.0982 39.291 27.1686 39.296 27.2409C39.296 27.3729 39.482 28.1879 39.548 28.3449C39.576 28.4129 39.612 28.5649 39.628 28.6849C39.668 28.9989 39.802 29.6209 39.861 29.7629C39.888 29.8309 39.924 29.9829 39.94 30.1029C40.003 30.5769 40.12 31.1879 40.17 31.3039C40.23 31.4459 40.298 32.0599 40.313 32.5989L40.323 32.9689L25.702 32.9839L11.08 32.9999L11.121 32.6759ZM40.977 28.9809C40.977 28.8739 40.951 28.7009 40.92 28.5959C40.8247 28.2284 40.7466 27.8566 40.686 27.4819C40.6693 27.377 40.6428 27.2739 40.607 27.1739C40.5442 26.9709 40.4915 26.765 40.449 26.5569C40.4059 26.3494 40.3539 26.1439 40.293 25.9409C40.1549 25.4616 40.0308 24.9784 39.921 24.4919C39.803 23.9789 39.713 23.6519 39.661 23.5519C39.6268 23.4732 39.6084 23.3886 39.607 23.3029C39.607 23.2249 39.58 23.1329 39.547 23.0999C39.513 23.0669 39.467 22.8399 39.444 22.5929C39.421 22.3469 39.378 22.1309 39.349 22.1129C39.319 22.0949 39.296 22.0149 39.296 21.9359C39.296 21.6259 38.84 20.8979 38.33 20.3919C38.1232 20.1823 37.9087 19.9805 37.687 19.7869C37.408 19.5739 36.74 19.1899 36.647 19.1899C36.597 19.1899 36.556 19.1689 36.556 19.1429C36.556 19.0929 36.101 18.8819 35.995 18.8819C35.961 18.8819 35.933 18.8559 35.933 18.8239C35.933 18.7929 35.87 18.7579 35.793 18.7469C35.7521 18.7433 35.7137 18.7256 35.6844 18.6968C35.6552 18.6679 35.637 18.6297 35.633 18.5889C35.622 18.5129 35.638 18.4499 35.668 18.4499C35.698 18.4499 35.788 18.3219 35.868 18.1649C36.008 17.8849 36.495 17.3409 36.602 17.3409C36.632 17.3409 36.711 17.2909 36.777 17.2309C36.844 17.1699 36.989 17.0829 37.1 17.0379L37.303 16.9559V16.3609C37.303 15.6959 37.281 15.6609 36.828 15.5799C36.7233 15.5647 36.6211 15.5358 36.524 15.4939C36.3827 15.4318 36.2369 15.3803 36.088 15.3399C35.9147 15.289 35.7426 15.234 35.572 15.1749C35.4868 15.1439 35.3975 15.1257 35.307 15.1209C35.24 15.1209 35.185 15.0969 35.185 15.0669C35.185 15.0369 35.079 14.9969 34.95 14.9769C34.761 14.9355 34.5779 14.8706 34.405 14.7839C34.235 14.6979 34.06 14.6279 34.018 14.6279C33.975 14.6279 33.94 14.5999 33.94 14.5659C33.94 14.5319 33.965 14.5049 33.995 14.5049C34.025 14.5049 34.069 14.4349 34.09 14.3499C34.111 14.2659 34.157 14.1959 34.19 14.1959C34.224 14.1959 34.251 14.1269 34.251 14.0419C34.251 13.9569 34.279 13.8879 34.314 13.8879C34.348 13.8879 34.376 13.8329 34.376 13.7659C34.376 13.6989 34.421 13.5309 34.477 13.3939C34.595 13.1019 34.557 13.0169 34.396 13.2099C34.015 13.6659 33.317 14.2759 33.317 14.1539C33.317 14.1239 33.343 14.0709 33.374 14.0389C33.467 13.9439 33.94 13.0109 33.94 12.9219C33.94 12.8769 33.968 12.8399 34.002 12.8399C34.036 12.8399 34.064 12.8099 34.064 12.7719C34.064 12.7059 34.204 12.3619 34.318 12.1489C34.388 12.0149 34.503 11.5809 34.541 11.2989C34.557 11.1799 34.594 11.0279 34.622 10.9589C34.678 10.8269 34.802 9.96788 34.882 9.17188C34.908 8.90088 34.957 8.51188 34.989 8.30888C35.021 8.10488 35.081 7.67488 35.122 7.35288C35.163 7.03088 35.22 6.71288 35.249 6.64388C35.278 6.57588 35.317 6.39588 35.337 6.24388C35.4 5.75488 35.527 5.14488 35.575 5.09788C35.6 5.07188 35.621 4.98688 35.621 4.90688C35.621 4.82688 35.647 4.71388 35.678 4.65488C35.71 4.59588 35.856 4.30488 36.004 4.00888C36.151 3.71188 36.294 3.46888 36.32 3.46888C36.347 3.46888 36.369 3.43788 36.369 3.39888C36.369 3.30388 37.003 2.67088 37.1 2.66888C37.143 2.66888 37.178 2.64588 37.178 2.61888C37.178 2.59288 37.255 2.53888 37.35 2.49888C37.522 2.41897 37.6908 2.33224 37.856 2.23888C38.041 2.13588 38.23 2.05088 38.276 2.05088C38.323 2.05088 38.361 2.02688 38.361 1.99688C38.361 1.96688 38.439 1.92688 38.533 1.90888C38.829 1.85088 39.259 1.72888 39.408 1.66088C39.608 1.56888 41.209 1.57788 41.303 1.67088C41.3647 1.71807 41.4403 1.7434 41.518 1.74288C41.672 1.74288 42.007 1.85888 42.52 2.08888C42.7 2.16888 42.876 2.23588 42.91 2.23588C42.943 2.23588 42.97 2.26088 42.97 2.29088C42.97 2.32088 43.019 2.36088 43.079 2.37888C43.414 2.48388 44.34 3.23588 44.34 3.40288C44.34 3.43488 44.376 3.49688 44.42 3.54188C44.575 3.70188 45.083 4.80588 45.124 5.07588C45.148 5.22588 45.188 5.37688 45.214 5.41088C45.24 5.44488 45.276 5.59788 45.294 5.75088C45.313 5.90288 45.374 6.29088 45.431 6.61288C45.574 7.42688 45.761 8.68088 45.899 9.75788C46.023 10.7259 46.171 11.4789 46.277 11.6829C46.307 11.7429 46.333 11.8389 46.333 11.8989C46.333 11.9589 46.376 12.0869 46.427 12.1839C46.473 12.2651 46.5044 12.3538 46.52 12.4459C46.52 12.4929 46.548 12.5319 46.582 12.5319C46.616 12.5319 46.644 12.5659 46.644 12.6079C46.644 12.6499 46.719 12.8379 46.809 13.0239L47.136 13.7039C47.226 13.8899 47.326 14.0619 47.359 14.0849C47.392 14.1089 47.401 14.1449 47.38 14.1669C47.32 14.2269 46.697 13.6699 46.308 13.2079L46.127 12.9939L46.171 13.2409C46.253 13.6929 46.458 14.2289 46.584 14.3199C46.6251 14.3695 46.6548 14.4275 46.671 14.4899C46.704 14.5939 46.687 14.6379 46.601 14.6659C46.539 14.6859 46.367 14.7559 46.219 14.8219C46.0728 14.8867 45.9212 14.9385 45.766 14.9769C45.666 14.9969 45.568 15.0379 45.549 15.0669C45.531 15.0969 45.447 15.1209 45.363 15.1209C45.2734 15.1223 45.185 15.1417 45.103 15.1779C44.988 15.2379 44.173 15.4949 43.74 15.6089C43.36 15.7089 43.338 15.7609 43.385 16.4159C43.425 16.9739 43.431 16.9909 43.603 17.0549C43.7 17.0909 43.779 17.1429 43.779 17.1689C43.779 17.1959 43.809 17.2169 43.846 17.2169C43.92 17.2169 44.303 17.4899 44.496 17.6799C44.564 17.7469 44.676 17.9129 44.745 18.0489C44.813 18.1839 44.905 18.3309 44.947 18.3769C44.99 18.4219 45.025 18.4809 45.025 18.5069C45.025 18.6209 45.406 18.9369 45.626 19.0039C45.87 19.0789 46.106 19.1759 46.547 19.3839C46.682 19.4469 46.829 19.4979 46.874 19.4979C46.919 19.4979 46.956 19.5259 46.956 19.5579C46.956 19.5919 47.026 19.6369 47.111 19.6579C47.197 19.6789 47.267 19.7179 47.267 19.7429C47.267 19.8109 47.882 20.1149 48.02 20.1149C48.085 20.1149 48.139 20.1359 48.139 20.1629C48.139 20.2159 48.606 20.3519 48.964 20.4029C49.094 20.4209 49.214 20.4609 49.233 20.4909C49.252 20.5209 49.337 20.5459 49.422 20.5459C49.507 20.5459 49.765 20.5919 49.994 20.6469C50.446 20.7569 51.025 21.1239 51.096 21.3469C51.119 21.4149 51.163 21.4709 51.195 21.4709C51.227 21.4709 51.253 21.5129 51.253 21.5639C51.253 21.6139 51.273 21.6559 51.299 21.6569C51.361 21.6569 51.564 22.0119 51.564 22.1179C51.564 22.1639 51.597 22.2119 51.637 22.2249C51.713 22.2499 51.781 23.2639 51.851 25.4169C51.871 26.0439 51.913 26.5839 51.944 26.6159C51.974 26.6479 52 27.2379 52 27.9259V29.1769H40.977V28.9809ZM0.123971 28.1639C0.123971 28.0139 0.0959713 27.8729 0.0619713 27.8519C-0.0160287 27.8039 -0.0220287 26.3269 0.0549713 26.2459C0.0849713 26.2139 0.126971 25.8679 0.147971 25.4779C0.187971 24.7099 0.313971 23.7889 0.387971 23.7159C0.413971 23.6909 0.434971 23.6039 0.434971 23.5219C0.434971 23.3639 0.593971 22.8039 0.688971 22.6279C0.721333 22.5675 0.741067 22.5011 0.746971 22.4329C0.746971 22.3839 0.786971 22.2659 0.836971 22.1699C0.886971 22.0739 0.963971 21.9049 1.00797 21.7949C1.05197 21.6849 1.10497 21.5949 1.12397 21.5949C1.14397 21.5949 1.22397 21.4669 1.30397 21.3099C1.48397 20.9529 2.25397 20.1759 2.58397 20.0179C2.72097 19.9529 2.84197 19.8779 2.85397 19.8529C2.86497 19.8269 2.89997 19.8069 2.93197 19.8069C2.96297 19.8069 3.13397 19.7369 3.31197 19.6529C3.48897 19.5679 3.67197 19.4979 3.71597 19.4979C3.76097 19.4979 3.79797 19.4709 3.79797 19.4379C3.79797 19.4039 3.91097 19.3579 4.04797 19.3369C4.18597 19.3149 4.31397 19.2729 4.33297 19.2439C4.35097 19.2139 4.42097 19.1899 4.48797 19.1899C4.55497 19.1899 4.65797 19.1659 4.71797 19.1359C4.8751 19.072 5.03569 19.0169 5.19897 18.9709C5.34721 18.9298 5.49282 18.8797 5.63497 18.8209C5.66997 18.8009 5.85897 18.7329 6.05497 18.6689C6.25297 18.6049 6.41397 18.5299 6.41397 18.5019C6.41397 18.4739 6.47697 18.4489 6.55397 18.4479C6.64728 18.4409 6.73703 18.4091 6.81397 18.3559C6.88246 18.3054 6.9633 18.2743 7.04797 18.2659C7.10997 18.2659 7.16097 18.2379 7.16097 18.2039C7.16097 18.1699 7.20297 18.1419 7.25497 18.1419C7.32597 18.1364 7.39508 18.1163 7.45797 18.0829C7.51797 18.0509 7.67797 17.9759 7.81497 17.9169C7.95197 17.8569 8.07797 17.7929 8.09497 17.7739C8.11197 17.7539 8.25197 17.6839 8.40697 17.6179C8.51461 17.5758 8.61862 17.5249 8.71797 17.4659C8.75797 17.4229 9.40197 17.1159 9.54297 17.0709C9.60297 17.0509 9.65297 16.9799 9.65297 16.9109C9.65297 16.8419 9.67697 16.7859 9.70797 16.7859C9.73797 16.7859 9.77897 16.6679 9.79797 16.5239C9.81597 16.3799 9.87697 16.0399 9.93197 15.7679C10.116 14.8719 10.116 14.8989 9.93897 14.7099C9.84897 14.6149 9.77697 14.5019 9.77697 14.4599C9.77697 14.4159 9.75197 14.3809 9.72097 14.3809C9.69097 14.3809 9.64797 14.3119 9.62697 14.2269C9.60497 14.1419 9.55997 14.0729 9.52697 14.0729C9.49297 14.0729 9.46497 14.0309 9.46497 13.9809C9.46497 13.9299 9.43697 13.8879 9.40297 13.8879C9.36897 13.8879 9.34097 13.8439 9.34097 13.7899C9.32852 13.6978 9.29865 13.6088 9.25297 13.5279C9.08497 13.2159 8.89997 12.7679 8.86297 12.5879C8.84297 12.4879 8.80197 12.3909 8.77297 12.3729C8.74297 12.3549 8.71797 12.2689 8.71797 12.1829C8.70237 12.0166 8.66953 11.8524 8.61997 11.6929C8.53097 11.3919 8.50597 11.3609 8.34497 11.3609C8.15097 11.3609 7.86697 11.0839 7.81897 10.8469C7.70296 10.2825 7.64367 9.70802 7.64197 9.13188C7.62697 8.29188 7.62997 8.28388 8.00897 8.05788C8.10697 7.99888 8.10997 7.96888 8.03897 7.79788C7.92397 7.52388 7.90597 4.80388 8.01697 4.69288C8.06302 4.64292 8.09056 4.57869 8.09497 4.51088C8.09497 4.13588 8.94797 3.10088 9.51197 2.79088C9.65797 2.71088 9.77697 2.62588 9.77697 2.60088C9.77697 2.57788 9.84697 2.54088 9.93197 2.51888C10.018 2.49788 10.088 2.45288 10.088 2.41988C10.088 2.38688 10.13 2.35988 10.182 2.35988C10.232 2.35988 10.275 2.33388 10.275 2.30188C10.275 2.26988 10.326 2.22888 10.389 2.20888C10.4749 2.17495 10.5544 2.12658 10.624 2.06588C10.7299 1.98066 10.843 1.90471 10.962 1.83888C11.081 1.77288 11.234 1.66588 11.302 1.60188C11.3739 1.53617 11.4523 1.47787 11.536 1.42788C11.633 1.37588 11.645 1.40088 11.645 1.64788C11.645 1.80188 11.659 1.92788 11.677 1.92788C11.694 1.92788 12.005 1.63488 12.367 1.27588C12.73 0.916883 13.043 0.640882 13.065 0.661882C13.086 0.682882 13.111 0.878883 13.119 1.09788C13.128 1.31688 13.171 1.55788 13.215 1.63488L13.295 1.77388L13.315 1.60388C13.338 1.40888 13.452 1.38788 13.723 1.52788C13.8051 1.57343 13.8944 1.60455 13.987 1.61988C14.035 1.61988 14.074 1.64088 14.074 1.66788C14.074 1.69388 14.214 1.76988 14.385 1.83588C14.556 1.90088 14.697 1.97088 14.697 1.98888C14.697 2.00888 14.822 2.07888 14.977 2.14488C15.13 2.21188 15.257 2.28788 15.257 2.31288C15.257 2.33888 15.286 2.35988 15.321 2.35988C15.4 2.35988 16.215 2.86188 16.243 2.92788C16.254 2.95388 16.299 2.97588 16.341 2.97588C16.478 2.97588 17.171 3.69488 17.292 3.96188C17.311 4.0072 17.3374 4.04909 17.37 4.08588C17.446 4.15088 17.624 4.74188 17.624 4.92988C17.624 5.03788 17.655 5.14588 17.694 5.16988C17.764 5.21188 17.744 6.18588 17.648 7.53788L17.611 8.06188L17.835 8.17988C17.958 8.24488 18.059 8.33488 18.059 8.37988C18.059 8.42588 18.084 8.46288 18.115 8.46288C18.215 8.46288 18.244 8.97488 18.186 9.72688C18.156 10.1339 18.111 10.5559 18.088 10.6649C18.038 10.9029 17.78 11.1749 17.606 11.1749C17.453 11.1749 17.316 11.3429 17.314 11.5349C17.311 11.7329 17.105 12.4959 17.047 12.5219C17.022 12.5319 17.001 12.6039 17.001 12.6789C16.9948 12.7714 16.9629 12.8604 16.909 12.9359C16.8633 12.9917 16.8314 13.0575 16.816 13.1279C16.811 13.3119 16.17 14.2779 15.709 14.7969C15.61 14.9069 15.592 14.9969 15.616 15.2589C15.632 15.4369 15.67 15.6089 15.7 15.6419C15.73 15.6739 15.755 15.7969 15.755 15.9149C15.755 16.0329 15.801 16.3259 15.858 16.5659L15.96 17.0029L16.839 17.4319C17.322 17.6679 17.81 17.9149 17.925 17.9799L18.132 18.0989L17.893 18.1859C17.778 18.2282 17.6623 18.2686 17.546 18.3069C17.486 18.3269 17.436 18.3659 17.436 18.3959C17.436 18.4259 17.366 18.4499 17.281 18.4499C17.195 18.4499 17.125 18.4779 17.125 18.5119C17.125 18.5459 17.09 18.5739 17.047 18.5749C17.005 18.5749 16.801 18.6579 16.596 18.7589C16.39 18.8589 16.187 18.9409 16.144 18.9419C16.102 18.9419 16.067 18.9649 16.067 18.9899C16.067 19.0159 15.976 19.0749 15.864 19.1219C15.6614 19.2183 15.4644 19.3262 15.274 19.4449C15.061 19.5759 14.868 19.6829 14.846 19.6829C14.802 19.6829 14.126 20.1559 13.906 20.3389C13.8034 20.4242 13.6997 20.5082 13.595 20.5909C13.275 20.8409 13.048 21.0669 12.766 21.4099C12.6642 21.5345 12.5609 21.6579 12.456 21.7799C12.4179 21.8276 12.3844 21.8789 12.356 21.9329C12.2794 22.0711 12.2024 22.2091 12.125 22.3469C11.921 22.7099 11.645 23.4919 11.645 23.7069C11.645 23.7949 11.618 23.9389 11.584 24.0269C11.5284 24.2047 11.485 24.3862 11.454 24.5699C11.378 24.9899 11.329 25.2239 11.177 25.8799C11.1244 26.1054 11.0728 26.331 11.022 26.5569C10.992 26.6929 10.922 26.9979 10.867 27.2349C10.8123 27.4705 10.7623 27.7072 10.717 27.9449C10.617 28.4949 11.231 28.4379 5.34797 28.4379H0.123971V28.1639Z" fill="#F88500"/>
</g>
<defs>
<clipPath id="clip0_103_120">
<rect width="52" height="33" fill="white"/>
</clipPath>
</defs>
</svg>
