<svg width="40" height="41" viewBox="0 0 40 41" fill="none" xmlns="http://www.w3.org/2000/svg">
<g clip-path="url(#clip0_103_124)">
<path d="M0.205 40.79L0 40.58V18.846L0.205 18.636C0.266094 18.5702 0.340031 18.5176 0.422244 18.4815C0.504458 18.4454 0.593203 18.4265 0.683 18.426C0.936 18.426 1.769 19.259 11.479 29.222C21.189 39.185 22 40.039 22 40.299C22 40.484 21.93 40.652 21.796 40.79L21.591 41H0.41L0.205 40.79ZM19.667 39.61C19.667 39.599 15.542 35.356 10.5 30.183L1.333 20.778V39.632H10.5C15.542 39.632 19.667 39.622 19.667 39.61ZM4.205 36.686L4 36.476V29.107L4.205 28.897C4.26609 28.8312 4.34003 28.7786 4.42224 28.7425C4.50446 28.7064 4.5932 28.6875 4.683 28.687C4.932 28.687 5.268 29.007 8.478 32.301C11.688 35.594 12 35.94 12 36.195C12 36.379 11.93 36.548 11.796 36.685L11.591 36.895H4.41L4.205 36.685V36.686ZM9.667 35.506C9.667 35.493 8.692 34.484 7.5 33.262L5.333 31.04V35.528H7.5C8.692 35.528 9.667 35.518 9.667 35.506ZM20.667 36.215V35.528H26.146C29.885 35.527 31.731 35.497 31.958 35.432C32.407 35.305 33.117 34.577 33.24 34.117C33.291 33.929 33.333 33.554 33.333 33.283V32.791H17.742L17.538 32.581L17.333 32.371V26.371L17.538 26.161L17.742 25.951H33.334V11.887L32 13.253L30.667 14.62V24.163L30.462 24.373L30.258 24.583H15.076L14.871 24.373C14.669 24.166 14.667 24.144 14.667 22.62V21.077H14.384C13.961 21.077 12.702 20.681 12.042 20.339C10.12 19.346 8.756 17.573 8.202 15.347C7.952 14.344 7.989 12.642 8.284 11.636C8.685 10.266 9.254 9.266 10.164 8.336C11.132 7.345 12.316 6.67 13.72 6.312C14.57 6.094 16.25 6.117 17.125 6.358C19.183 6.926 20.92 8.354 21.844 10.239L22.169 10.902H27.043L30.188 7.674L33.333 4.445V3.762C33.333 3.386 33.291 2.924 33.24 2.736C33.117 2.276 32.406 1.548 31.958 1.421C31.488 1.287 8.513 1.287 8.042 1.421C7.594 1.548 6.883 2.276 6.76 2.736C6.695 2.976 6.667 5.789 6.667 12.12V21.163H5.33L5.352 11.859L5.375 2.556C5.861 0.915 6.707 0.29 7.875 0H32.125L32.687 0.273C33.662 0.747 34.437 1.75 34.561 2.699C34.586 2.884 34.624 3.035 34.648 3.035C34.671 3.035 34.988 2.743 35.352 2.386C36.206 1.549 36.582 1.368 37.458 1.373C38.236 1.378 38.752 1.6 39.262 2.152C39.778 2.708 39.949 3.151 39.953 3.933C39.959 5.059 39.925 5.108 37.121 7.996L34.667 10.523V25.951H39.591L39.795 26.161L40 26.371V32.371L39.795 32.581L39.591 32.791H34.69L34.647 33.566C34.61 34.233 34.562 34.428 34.303 34.965C33.94 35.72 33.448 36.21 32.682 36.582L32.125 36.853L26.395 36.877L20.667 36.901V36.214V36.215ZM38.667 29.371V27.32H37.333V28.688H36V27.32H34.667V28.688H33.333V27.32H32V28.688H30.667V27.32H29.333V28.688H28V27.32H26.667V28.688H25.333V27.32H24V28.688H22.667V27.32H21.333V28.688H20V27.32H18.667V31.424H38.667V29.372V29.371ZM29.333 19.604V15.993L28.509 16.835L27.685 17.678L25.833 18.058C24.815 18.268 23.892 18.418 23.783 18.389C23.674 18.361 23.522 18.239 23.443 18.116C23.307 17.903 23.316 17.818 23.668 15.958L24.035 14.023L24.866 13.146L25.698 12.27H22.58L22.633 13.19C22.843 16.837 20.557 20.006 17.037 20.947C16.768 21.019 16.425 21.077 16.274 21.077H16V23.215H29.333V19.604ZM14.905 11.065C15.09 10.912 15.269 10.902 17.893 10.902C20.356 10.902 20.679 10.887 20.636 10.772C20.508 10.429 19.88 9.604 19.388 9.132C18.7358 8.50891 17.9538 8.03797 17.098 7.753C16.538 7.561 16.318 7.534 15.333 7.535C14.334 7.535 14.133 7.56 13.542 7.765C11.886 8.334 10.707 9.378 9.952 10.945C9.108 12.691 9.117 14.535 9.976 16.372C10.301 17.066 10.462 17.292 11.115 17.956C12.083 18.943 13.058 19.482 14.256 19.692L14.625 19.757L14.667 15.493L14.708 11.229L14.905 11.065ZM17.387 19.415C18.215 19.106 18.82 18.697 19.542 17.956C20.302 17.176 20.741 16.46 21.059 15.476C21.251 14.883 21.281 14.646 21.286 13.681C21.289 13.07 21.265 12.502 21.232 12.42C21.177 12.282 20.97 12.27 18.586 12.27H16V19.771L16.43 19.691C16.7551 19.6212 17.0749 19.5286 17.387 19.414V19.415ZM25.449 16.756C25.661 16.723 25.852 16.669 25.872 16.636C25.892 16.602 25.728 16.391 25.506 16.166C25.285 15.943 25.085 15.792 25.062 15.832C25.0166 15.9666 24.9841 16.1052 24.965 16.246C24.9375 16.4157 24.9028 16.5842 24.861 16.751C24.827 16.87 24.847 16.901 24.938 16.864C25.1053 16.8163 25.2757 16.7802 25.448 16.756H25.449ZM32.209 11.073L37.041 6.113L36.187 5.238L35.333 4.361L30.48 9.341L25.627 14.321L26.457 15.177C26.915 15.647 27.308 16.032 27.332 16.032C27.356 16.032 29.55 13.801 32.208 11.073H32.209ZM38.323 4.787C38.795 4.235 38.788 3.547 38.306 3.053C37.799 2.533 37.032 2.578 36.504 3.158L36.3 3.383L37.128 4.235C37.583 4.704 37.98 5.088 38.011 5.088C38.041 5.088 38.181 4.952 38.324 4.787H38.323ZM8 3.377V2.693H9.333V4.062H8V3.377ZM10.667 3.377V2.693H12V4.062H10.667V3.377ZM13.333 3.377V2.693H14.667V4.062H13.333V3.377Z" fill="#F88500"/>
</g>
<defs>
<clipPath id="clip0_103_124">
<rect width="40" height="41" fill="white"/>
</clipPath>
</defs>
</svg>
