<svg width="68" height="33" viewBox="0 0 68 33" fill="none" xmlns="http://www.w3.org/2000/svg">
<path d="M26.602 32.5697C24.775 32.0864 23.485 30.37 23.462 28.3925C23.449 27.3652 23.632 26.6885 24.132 25.906C25.588 23.6323 28.68 23.3135 30.52 25.2478C31.39 26.161 31.636 26.8397 31.637 28.3288C31.638 29.4713 31.605 29.6615 31.303 30.2651C30.603 31.6616 29.317 32.5481 27.861 32.6406C27.418 32.6674 26.851 32.6365 26.601 32.5697H26.602ZM28.308 29.4527C28.94 28.9879 29.044 27.9133 28.509 27.3858C27.576 26.4644 26.166 27.1544 26.319 28.4552C26.434 29.4445 27.555 30.007 28.309 29.4527H28.308ZM54.961 32.5327C53.711 32.1625 52.616 31.0837 52.145 29.7643C51.847 28.9283 51.922 27.2778 52.293 26.4829C52.733 25.5419 53.346 24.893 54.223 24.4385C54.944 24.0662 55.139 24.022 56.059 24.022C56.979 24.022 57.175 24.0662 57.895 24.4385C59.376 25.2036 60.186 26.5816 60.182 28.3288C60.178 30.152 59.279 31.5938 57.682 32.3352C56.992 32.6561 55.692 32.7507 54.961 32.5327ZM56.933 29.2892C57.271 28.9725 57.327 28.8368 57.327 28.3288C57.327 27.8218 57.271 27.686 56.933 27.3683C56.638 27.0916 56.419 26.9981 56.06 26.9981C55.702 26.9981 55.483 27.0916 55.188 27.3683C54.85 27.686 54.794 27.8218 54.794 28.3288C54.794 28.8368 54.85 28.9725 55.188 29.2892C55.483 29.5669 55.702 29.6594 56.06 29.6594C56.419 29.6594 56.638 29.5669 56.933 29.2892ZM15.177 25.037V22.8199H14.749C13.786 22.8199 13.366 21.5344 14.082 20.7827L14.434 20.4125H18.249C22.439 20.4125 22.606 20.3858 22.889 19.6669C23.073 19.2011 22.964 18.616 22.635 18.3033C22.404 18.0833 22.02 18.0648 16.675 18.0051L10.961 17.9414L10.629 17.5938C10.5191 17.4819 10.4319 17.3487 10.3723 17.202C10.3128 17.0552 10.2821 16.8977 10.2821 16.7387C10.2821 16.5797 10.3128 16.4222 10.3723 16.2754C10.4319 16.1287 10.5191 15.9955 10.629 15.8836L10.961 15.534L20.677 15.4723L30.393 15.4085L30.684 15.0527C30.87 14.8361 30.9726 14.557 30.9726 14.2681C30.9726 13.9791 30.87 13.7001 30.684 13.4834L30.394 13.1276L15.492 13.0649L0.591 12.9991L0.337 12.7317C0.197 12.5857 0.0550003 12.2412 0.0200003 11.9666C-0.0329997 11.5522 0.0110003 11.3969 0.28 11.0617L0.603 10.6575L18.38 10.6246L36.156 10.5917L36.487 10.2431C36.5969 10.1312 36.6841 9.99805 36.7437 9.85128C36.8032 9.70451 36.8339 9.54706 36.8339 9.38803C36.8339 9.229 36.8032 9.07155 36.7437 8.92478C36.6841 8.77801 36.5969 8.64483 36.487 8.53296L36.156 8.18537L22.018 8.12161C14.242 8.08665 7.807 8.0085 7.718 7.94679C7.398 7.73084 7.194 6.99351 7.333 6.55338C7.609 5.67413 7.123 5.71424 17.451 5.71424C23.875 5.71424 26.831 5.67208 27.031 5.57747C27.761 5.22783 27.901 4.08224 27.276 3.56601C26.971 3.31406 26.822 3.30789 21.066 3.30789C14.786 3.30789 14.523 3.28424 14.222 2.69294C13.995 2.24869 14.067 1.57717 14.382 1.19257L14.673 0.836759L30.423 0.803852L46.17 0.771973V23.3248H47.617V6.34873H58.093L58.338 6.67575C58.553 6.96369 60.54 9.15408 65.048 14.0768C65.781 14.8789 66.745 15.933 67.189 16.4215L67.997 17.3069L67.999 22.28L68 27.2521H61.548L61.341 26.5137C61.051 25.4782 60.284 24.3305 59.431 23.6559C57.173 21.8738 54.141 22.0969 52.148 24.1907C51.452 24.9218 50.82 26.0582 50.683 26.8232L50.606 27.2521H33.053L32.976 26.8232C32.736 25.4761 31.33 23.6991 29.971 23.0245C26.893 21.4943 23.211 23.2343 22.229 26.6824L22.085 27.1893L18.631 27.2222L15.177 27.2562V25.037ZM61.347 12.9682C59.14 10.5475 57.277 8.5237 57.209 8.47331C57.141 8.42189 55.499 8.3787 53.558 8.37767L50.03 8.37562V17.3706H65.363L61.348 12.9693L61.347 12.9682Z" fill="#F88500"/>
</svg>
