<svg width="17" height="14" viewBox="0 0 17 14" fill="none" xmlns="http://www.w3.org/2000/svg">
<path d="M15.3526 3.74227C15.3628 3.88445 15.3628 4.02667 15.3628 4.16885C15.3628 8.50555 12.0633 13.5024 6.03285 13.5024C4.17497 13.5024 2.4491 12.9641 0.997314 12.0298C1.26128 12.0603 1.51506 12.0704 1.78919 12.0704C3.32216 12.0704 4.73335 11.5525 5.86025 10.6689C4.41863 10.6384 3.2105 9.69386 2.79425 8.39385C2.99731 8.42429 3.20035 8.44462 3.41356 8.44462C3.70797 8.44462 4.00241 8.40397 4.2765 8.33292C2.77397 8.0282 1.64703 6.7079 1.64703 5.11337V5.07276C2.08356 5.31651 2.59122 5.46886 3.12925 5.48914C2.246 4.90007 1.66735 3.89461 1.66735 2.75711C1.66735 2.14774 1.82975 1.58915 2.11403 1.10164C3.72825 3.09227 6.15466 4.39225 8.87544 4.53446C8.82469 4.29071 8.79422 4.03683 8.79422 3.78291C8.79422 1.97508 10.2562 0.502441 12.0734 0.502441C13.0176 0.502441 13.8703 0.898534 14.4693 1.53838C15.2104 1.3962 15.9211 1.12197 16.5506 0.746193C16.3069 1.50793 15.7891 2.14777 15.1089 2.554C15.7688 2.48294 16.4084 2.30008 16.9973 2.0462C16.5506 2.69618 15.9922 3.27506 15.3526 3.74227Z" fill="#333333" fill-opacity="0.5"/>
</svg>
