<svg width="17" height="12" viewBox="0 0 17 12" fill="none" xmlns="http://www.w3.org/2000/svg">
<path d="M16.6327 0.81375C16.7426 0.345 16.6327 0 16.104 0H14.3545C13.909 0 13.704 0.29625 13.5941 0.62625C13.5941 0.62625 12.703 3.3675 11.4437 5.145C11.0367 5.65875 10.8496 5.82375 10.6268 5.82375C10.5169 5.82375 10.3476 5.65875 10.3476 5.19V0.81375C10.3476 0.25125 10.2229 0 9.85457 0H7.10413C6.82493 0 6.65859 0.2625 6.65859 0.50625C6.65859 1.03875 7.28829 1.1625 7.35363 2.6625V5.9175C7.35363 6.63 7.25264 6.76125 7.02987 6.76125C6.43583 6.76125 4.99229 4.00875 4.13686 0.85875C3.96459 0.2475 3.79528 0 3.34678 0H1.5973C1.0983 0 0.997314 0.29625 0.997314 0.62625C0.997314 1.21125 1.59136 4.1175 3.76261 7.9575C5.20912 10.5788 7.2467 12 9.10013 12C10.214 12 10.3506 11.685 10.3506 11.1413C10.3506 8.63625 10.2496 8.4 10.808 8.4C11.0664 8.4 11.512 8.565 12.5516 9.82875C13.7397 11.3288 13.9357 12 14.601 12H16.3505C16.8495 12 17.102 11.685 16.9564 11.0625C16.6238 9.75375 14.3753 7.06125 14.2743 6.88125C14.0159 6.46125 14.0901 6.27375 14.2743 5.89875C14.2773 5.895 16.4129 2.1 16.6327 0.81375Z" fill="#333333" fill-opacity="0.5"/>
</svg>
