<svg width="39" height="39" viewBox="0 0 39 39" fill="none" xmlns="http://www.w3.org/2000/svg">
<g clip-path="url(#clip0_103_132)">
<path d="M19.5 0C15.72 0 12.055 1.083 8.898 3.131C8.73237 3.23841 8.6162 3.40722 8.57503 3.60029C8.53387 3.79336 8.57109 3.99487 8.6785 4.1605C8.78591 4.32613 8.95472 4.4423 9.14779 4.48347C9.34086 4.52463 9.54237 4.48741 9.708 4.38C12.6232 2.48844 16.0249 1.48411 19.5 1.489C29.431 1.489 37.511 9.569 37.511 19.5C37.511 29.431 29.431 37.511 19.5 37.511C9.568 37.511 1.489 29.431 1.489 19.5C1.489 14.436 3.639 9.576 7.389 6.168C7.46136 6.10234 7.52008 6.02307 7.5618 5.93472C7.60352 5.84636 7.62743 5.75066 7.63217 5.65306C7.63691 5.55547 7.62237 5.4579 7.5894 5.36592C7.55643 5.27394 7.50566 5.18936 7.44 5.117C7.37434 5.04464 7.29507 4.98592 7.20672 4.9442C7.11836 4.90248 7.02266 4.87857 6.92506 4.87383C6.82747 4.86909 6.7299 4.88363 6.63792 4.9166C6.54594 4.94957 6.46136 5.00034 6.389 5.066C4.379 6.89546 2.77265 9.12402 1.67256 11.6093C0.572474 14.0947 0.00282375 16.7821 0 19.5C0 30.252 8.748 39 19.5 39C30.252 39 39 30.252 39 19.5C39 8.748 30.252 0 19.5 0Z" fill="#F88500"/>
<path d="M32.748 10.655C32.6939 10.5733 32.6242 10.5031 32.5429 10.4484C32.4616 10.3937 32.3703 10.3556 32.2742 10.3363C32.1782 10.317 32.0792 10.3169 31.9831 10.3359C31.887 10.3549 31.7956 10.3928 31.7141 10.4472C31.6326 10.5017 31.5627 10.5717 31.5084 10.6532C31.4541 10.7348 31.4164 10.8263 31.3975 10.9224C31.3787 11.0186 31.379 11.1175 31.3984 11.2135C31.4179 11.3096 31.4562 11.4008 31.511 11.482C33.0987 13.8542 33.944 16.6455 33.939 19.5C33.939 27.462 27.462 33.939 19.5 33.939C11.539 33.939 5.061 27.462 5.061 19.5C5.061 11.538 11.54 5.06104 19.501 5.06104C23.298 5.06104 26.884 6.52404 29.599 9.18004C29.6685 9.24995 29.7512 9.30535 29.8424 9.34301C29.9335 9.38068 30.0312 9.39985 30.1298 9.39943C30.2284 9.39901 30.3259 9.37899 30.4167 9.34055C30.5075 9.3021 30.5897 9.246 30.6586 9.17549C30.7275 9.10498 30.7818 9.02148 30.8181 8.92984C30.8545 8.83819 30.8723 8.74024 30.8704 8.64166C30.8686 8.54308 30.8472 8.44585 30.8075 8.35562C30.7677 8.26538 30.7105 8.18395 30.639 8.11604C27.6679 5.19574 23.666 3.56355 19.5 3.57304C10.718 3.57304 3.573 10.717 3.573 19.5C3.573 28.282 10.718 35.427 19.5 35.427C28.283 35.427 35.428 28.282 35.428 19.5C35.428 16.334 34.501 13.275 32.748 10.655Z" fill="#F88500"/>
<path d="M19.5 8.13696C17.047 8.13696 14.712 8.90696 12.746 10.362C12.6658 10.4194 12.5979 10.4923 12.5461 10.5763C12.4944 10.6602 12.4598 10.7537 12.4445 10.8511C12.4292 10.9486 12.4334 11.0481 12.4569 11.1439C12.4804 11.2397 12.5227 11.3299 12.5814 11.4092C12.6401 11.4885 12.714 11.5553 12.7987 11.6058C12.8835 11.6563 12.9774 11.6894 13.0751 11.7033C13.1727 11.7171 13.2722 11.7114 13.3676 11.6865C13.4631 11.6615 13.5526 11.6178 13.631 11.558C15.3276 10.2976 17.3865 9.61982 19.5 9.62596C24.945 9.62596 29.374 14.056 29.374 19.5C29.3777 21.702 28.6439 23.8418 27.2896 25.5782C25.9354 27.3145 24.0386 28.5473 21.902 29.08C21.7105 29.1278 21.5459 29.2498 21.4443 29.4191C21.3428 29.5883 21.3126 29.791 21.3605 29.9825C21.4084 30.174 21.5304 30.3386 21.6996 30.4401C21.8689 30.5417 22.0715 30.5718 22.263 30.524C24.722 29.9113 26.905 28.4928 28.4637 26.4947C30.0224 24.4967 30.8671 22.0341 30.863 19.5C30.863 13.235 25.765 8.13696 19.5 8.13696ZM13.254 27.148C12.1185 26.2233 11.2036 25.0569 10.576 23.7338C9.94834 22.4108 9.6238 20.9643 9.626 19.5C9.626 17.441 10.253 15.469 11.44 13.796C11.5542 13.6348 11.5997 13.435 11.5665 13.2403C11.5333 13.0456 11.4241 12.8721 11.263 12.758C11.1019 12.6438 10.902 12.5983 10.7073 12.6315C10.5127 12.6647 10.3392 12.7738 10.225 12.935C8.86222 14.8524 8.13256 17.1476 8.138 19.5C8.138 22.923 9.659 26.13 12.312 28.3C12.3875 28.3621 12.4746 28.4086 12.5682 28.437C12.6618 28.4653 12.76 28.4749 12.8573 28.4652C12.9546 28.4554 13.049 28.4265 13.1351 28.3801C13.2212 28.3338 13.2973 28.2708 13.359 28.195C13.4209 28.1193 13.4672 28.0322 13.4954 27.9387C13.5236 27.8451 13.5331 27.7469 13.5234 27.6497C13.5136 27.5525 13.4848 27.4581 13.4386 27.372C13.3924 27.286 13.3296 27.2098 13.254 27.148Z" fill="#F88500"/>
<path d="M25.95 18.7559C25.7527 18.7559 25.5634 18.8343 25.4239 18.9738C25.2844 19.1134 25.206 19.3026 25.206 19.4999C25.2044 21.0128 24.6027 22.4632 23.533 23.5329C22.4633 24.6027 21.0128 25.2043 19.5 25.2059C17.9872 25.2041 16.537 24.6023 15.4673 23.5326C14.3976 22.463 13.7958 21.0127 13.794 19.4999C13.7958 17.9872 14.3976 16.5369 15.4673 15.4672C16.537 14.3975 17.9872 13.7958 19.5 13.7939C19.6974 13.7939 19.8868 13.7155 20.0264 13.5759C20.1661 13.4363 20.2445 13.2469 20.2445 13.0494C20.2445 12.852 20.1661 12.6626 20.0264 12.523C19.8868 12.3834 19.6974 12.3049 19.5 12.3049C15.533 12.3049 12.305 15.5329 12.305 19.4999C12.305 23.4669 15.533 26.6949 19.5 26.6949C23.467 26.6949 26.695 23.4669 26.695 19.4999C26.695 19.4021 26.6757 19.3053 26.6383 19.215C26.6008 19.1247 26.5459 19.0426 26.4767 18.9735C26.4075 18.9044 26.3254 18.8496 26.235 18.8123C26.1446 18.7749 26.0478 18.7558 25.95 18.7559Z" fill="#F88500"/>
<path d="M19.5 16.4729C18.6974 16.4737 17.928 16.7929 17.3605 17.3604C16.793 17.9279 16.4738 18.6973 16.473 19.4999C16.4738 20.3025 16.793 21.0719 17.3605 21.6394C17.928 22.2069 18.6974 22.5261 19.5 22.5269C20.3024 22.5258 21.0716 22.2066 21.6389 21.6391C22.2062 21.0716 22.5252 20.3023 22.526 19.4999C22.5252 18.6975 22.2062 17.9282 21.6389 17.3607C21.0716 16.7932 20.3024 16.474 19.5 16.4729ZM19.5 21.0379C19.0923 21.0374 18.7014 20.8752 18.413 20.5868C18.1247 20.2985 17.9625 19.9076 17.962 19.4999C17.962 18.6519 18.652 17.9619 19.5 17.9619C20.348 17.9619 21.038 18.6519 21.038 19.4999C21.0375 19.9076 20.8753 20.2985 20.5869 20.5868C20.2986 20.8752 19.9077 21.0374 19.5 21.0379Z" fill="#F88500"/>
</g>
<defs>
<clipPath id="clip0_103_132">
<rect width="39" height="39" fill="white"/>
</clipPath>
</defs>
</svg>
